<?xml version="1.0" standalone="no"?>
<!DOCTYPE svg PUBLIC "-//W3C//DTD SVG 20010904//EN"
 "http://www.w3.org/TR/2001/REC-SVG-20010904/DTD/svg10.dtd">
<svg version="1.0" xmlns="http://www.w3.org/2000/svg"
 width="109.000000pt" height="121.000000pt" viewBox="0 0 109.000000 121.000000"
 preserveAspectRatio="xMidYMid meet">

<g transform="translate(0.000000,121.000000) scale(0.100000,-0.100000)"
fill="#000000" stroke="none">
<path d="M626 1004 c-36 -64 -66 -120 -66 -125 0 -13 132 -239 139 -239 10 0
142 232 139 244 -6 21 -132 236 -139 236 -4 0 -36 -52 -73 -116z"/>
<path d="M141 746 c-39 -68 -71 -128 -71 -134 0 -5 31 -63 68 -129 l68 -118
151 -3 151 -3 66 113 c35 62 68 121 71 130 4 10 -20 61 -67 142 l-73 126 -146
0 -147 0 -71 -124z"/>
<path d="M811 734 l-73 -125 67 -117 c37 -64 70 -120 74 -124 3 -4 38 49 77
117 l71 123 -72 125 -71 126 -73 -125z"/>
<path d="M625 459 c-38 -67 -69 -127 -67 -133 6 -19 137 -245 142 -245 3 0 37
56 76 125 l71 126 -71 124 c-39 68 -73 124 -76 124 -3 0 -36 -55 -75 -121z"/>
</g>
</svg>
